<svg xmlns="http://www.w3.org/2000/svg" viewBox="0 0 428.3 459.3">
  <path
    fill="#262b34"
    d="M93.77,453.02c0,4.79-1.14,6.29-6,6-13.59-.7-27.32,1.24-40.81-1-28-4.67-46.67-26.44-46.8-54.91l-.12-215.45c-.2-39.33,10.05-75.58,32.73-107.83a184.79,184.79,0,0,1,64.2-57.24c29.74-16,61.25-23.7,95-22.35,36,1.44,69.22,11.44,99,32.08C315.66,49.55,336.12,70.55,349.4,97.92c3.39,7,2.37,8.77-5.56,8.82l-44.87.34c-10.78.5-14.86,8.83-8.27,18.18l43.76,62.6c2.21,3.18,1.78,6.07-.43,9.13-13.66,18.86-27.19,37.81-40.87,56.66-7.2,9.91-4.83,16.24,7.14,18.14s24.2.57,36.31.89c2.82.07,5.66,0,8.47.13,5.46.35,7,2.65,4.5,7.46a137,137,0,0,1-15.76,23.45c-23.4,28.5-52.28,49.1-87.83,59.63a156.2,156.2,0,0,1-44,7c-18.1.06-36.16.15-53.88-4.28-.16,0-.33,0-.49-.07-9.81-2.37-9.93-2.49-9.94-12.52q0-36.66,0-73.32c0-7.92,1-8.51,8.32-5.91,13.63,4.86,27.38,9.46,42.14,8.43,38.73-2.71,67.7-21.18,84.09-56.29,11.32-24.27,10.74-49.75,0-74.81-7.53-17.62-19.18-31.71-35.2-41.82-25.31-16-52.52-19-80.89-9.45-19.65,6.63-34.92,19.16-46.26,36.41a97.1,97.1,0,0,0-16.24,54"
  />
  <path
    fill="#6b48fe"
    d="M326.66,252.42c-2,0-3.87.41-5.13-1.93s0-3.48,1.16-5.19c9.69-14.08,19.52-28.07,29.15-42.19,10-14.64,9.6-11.07-.11-25.57-9.41-14.06-19.21-27.85-28.79-41.79-1.28-1.87-2.61-3.26-1.57-5.61,1.15-2.59,3.25-2.15,5.44-2.15,17-.06,33.92.09,50.87-.05,6.37,0,11.14,2.15,14.77,7.48,10.92,16,22.05,31.92,33,47.94,3.78,5.53,3.54,11.42-.13,16.81-10,14.75-20.42,29.28-30.47,44-3.9,5.77-8.76,8.19-15.83,8.36"
  />
</svg>
